<svg xmlns="http://www.w3.org/2000/svg" viewBox="0 0 64 64" fill="#2E4934">
  <!-- Fingerprint Spiral Symbol -->
  <path d="M32 2C15.4 2 2 15.4 2 32c0 8.3 3.4 15.8 8.8 21.2l2.8-2.8C9.2 46.2 6 39.5 6 32 6 17.6 17.6 6 32 6c7.2 0 13.7 2.9 18.4 7.6l2.8-2.8C48.2 5.6 40.5 2 32 2z"/>
  <path d="M32 10c-12.1 0-22 9.9-22 22 0 6.1 2.5 11.6 6.5 15.6l2.8-2.8c-3.2-3.2-5.2-7.7-5.2-12.8 0-9.9 8.1-18 18-18 5 0 9.6 2.1 12.8 5.4l2.8-2.8C43.4 12.6 38 10 32 10z"/>
  <path d="M32 18c-7.7 0-14 6.3-14 14 0 3.9 1.6 7.4 4.1 9.9l2.8-2.8c-1.8-1.9-2.9-4.4-2.9-7.1 0-5.5 4.5-10 10-10 2.8 0 5.3 1.1 7.1 3l2.8-2.8C39.2 19.6 35.8 18 32 18z"/>
  <path d="M32 26c-3.3 0-6 2.7-6 6 0 1.7.7 3.2 1.8 4.2l2.8-2.8c-.4-.4-.6-1-.6-1.5 0-1.7 1.3-3 3-3 .5 0 1 .2 1.5.5l2.8-2.8c-1-1-2.4-1.6-3.8-1.6z"/>
  <circle cx="32" cy="32" r="2"/>
</svg>
