<svg xmlns="http://www.w3.org/2000/svg" viewBox="0 0 400 70" fill="none">
  <!-- Fingerprint Spiral - Lime Green -->
  <g fill="#E3F599">
    <path d="M35 2C17.3 2 3 16.3 3 34c0 8.8 3.6 16.8 9.3 22.6.4.4.8.8 1.2 1.1l2.1-2.5c-.4-.3-.7-.6-1.1-.9C9.5 49.5 6.5 42.2 6.5 34c0-15.7 12.8-28.5 28.5-28.5 7.9 0 15 3.2 20.2 8.3l2.4-2.1C51.9 6 43.9 2 35 2z"/>
    <path d="M35 9c-13.8 0-25 11.2-25 25 0 6.9 2.8 13.1 7.3 17.6l2.2-2.4c-3.8-3.9-6.2-9.2-6.2-15.2 0-12 9.7-21.7 21.7-21.7 6 0 11.4 2.4 15.3 6.3l2.3-2.1C48.2 12 42 9 35 9z"/>
    <path d="M35 16c-9.9 0-18 8.1-18 18 0 5 2 9.5 5.3 12.8l2.2-2.4c-2.6-2.7-4.2-6.4-4.2-10.4 0-8.1 6.6-14.7 14.7-14.7 4.1 0 7.8 1.7 10.5 4.3l2.2-2.2C44.3 18.1 40 16 35 16z"/>
    <path d="M35 23c-6.1 0-11 4.9-11 11 0 3 1.2 5.8 3.2 7.8l2.2-2.4c-1.4-1.5-2.2-3.4-2.2-5.4 0-4.3 3.5-7.8 7.8-7.8 2.2 0 4.1.9 5.5 2.3l2.2-2.2C40.6 24.2 38 23 35 23z"/>
    <path d="M35 30c-2.2 0-4 1.8-4 4s1.8 4 4 4c1.1 0 2.1-.4 2.8-1.2l2.2-2.2c-.1-.2-.1-.4-.1-.6 0-2.2-2.2-4-4.9-4z"/>
    <circle cx="35" cy="34" r="1.5"/>
  </g>
  <!-- TREANTLY Text - Lime Green -->
  <text x="80" y="50" fill="#E3F599" font-family="system-ui, -apple-system, BlinkMacSystemFont, 'Segoe UI', sans-serif" font-size="46" font-weight="700" letter-spacing="4">TREANTLY</text>
</svg>
