<svg xmlns="http://www.w3.org/2000/svg" viewBox="0 0 280 50" fill="none">
  <!-- Fingerprint Spiral - Lime Green -->
  <g fill="#E3F599">
    <path d="M25 1C11.2 1 0 12.2 0 26c0 6.9 2.8 13.1 7.3 17.6l1.6-1.9c-4-4-6.5-9.6-6.5-15.7C2.4 13.5 12.5 3.4 25 3.4c6.2 0 11.8 2.5 15.9 6.5l1.9-1.6C38.1 3.8 31.9 1 25 1z"/>
    <path d="M25 7c-10.5 0-19 8.5-19 19 0 5.2 2.1 10 5.6 13.4l1.7-1.8c-2.9-3-4.8-7-4.8-11.6 0-9.1 7.4-16.5 16.5-16.5 4.6 0 8.7 1.9 11.6 4.9l1.8-1.7C35 9.2 30.2 7 25 7z"/>
    <path d="M25 13c-7.2 0-13 5.8-13 13 0 3.6 1.5 6.9 3.8 9.2l1.7-1.8c-1.9-2-3-4.6-3-7.4 0-6.4 5.1-11.5 11.5-11.5 2.9 0 5.5 1.1 7.5 2.9l1.7-1.7c-2.4-2.3-5.6-3.7-9.2-3.7z"/>
    <path d="M25 19c-3.9 0-7 3.1-7 7 0 1.9.8 3.7 2 4.9l1.7-1.8c-.8-.9-1.2-2-1.2-3.1 0-3 2.5-5.5 5.5-5.5 1.1 0 2.2.4 3.1 1l1.6-1.6c-1.3-1.2-3-1.9-4.7-1.9z"/>
    <circle cx="25" cy="26" r="2"/>
  </g>
  <!-- TREANTLY Text as paths - Lime Green -->
  <g fill="#E3F599">
    <!-- T -->
    <path d="M60 15h24v5h-9v22h-6V20h-9v-5z"/>
    <!-- R -->
    <path d="M88 15h14c6 0 10 3.5 10 9 0 4-2.2 7-5.8 8.2L114 42h-7l-7-9h-6v9h-6V15zm6 5v8h7c3 0 5-1.5 5-4s-2-4-5-4h-7z"/>
    <!-- E -->
    <path d="M118 15h20v5h-14v6h12v5h-12v6h14v5h-20V15z"/>
    <!-- A -->
    <path d="M156 15h7l12 27h-6.5l-2.5-6h-13l-2.5 6H144l12-27zm.5 16h9l-4.5-11-4.5 11z"/>
    <!-- N -->
    <path d="M178 15h6l13 18V15h6v27h-6l-13-18v18h-6V15z"/>
    <!-- T -->
    <path d="M210 15h24v5h-9v22h-6V20h-9v-5z"/>
    <!-- L -->
    <path d="M238 15h6v22h13v5h-19V15z"/>
    <!-- Y -->
    <path d="M260 15h7l6 10 6-10h7l-10 16v11h-6V31l-10-16z"/>
  </g>
</svg>
