<svg xmlns="http://www.w3.org/2000/svg" viewBox="0 0 400 80" fill="#2E4934">
  <!-- Fingerprint Symbol -->
  <g transform="translate(10, 5)">
    <path d="M35 5c-16.5 0-30 13.5-30 30s13.5 30 30 30c5.5 0 10.7-1.5 15.1-4.1" fill="none" stroke="#2E4934" stroke-width="3" stroke-linecap="round"/>
    <path d="M35 12c-12.7 0-23 10.3-23 23s10.3 23 23 23c4.2 0 8.2-1.2 11.6-3.2" fill="none" stroke="#2E4934" stroke-width="3" stroke-linecap="round"/>
    <path d="M35 19c-8.8 0-16 7.2-16 16s7.2 16 16 16c3 0 5.8-.8 8.2-2.3" fill="none" stroke="#2E4934" stroke-width="3" stroke-linecap="round"/>
    <path d="M35 26c-5 0-9 4-9 9s4 9 9 9c1.7 0 3.3-.5 4.6-1.3" fill="none" stroke="#2E4934" stroke-width="3" stroke-linecap="round"/>
    <path d="M35 33c-1.1 0-2 .9-2 2s.9 2 2 2 2-.9 2-2-.9-2-2-2" fill="#2E4934"/>
  </g>
  <!-- TREANTLY Text -->
  <text x="85" y="52" font-family="system-ui, -apple-system, sans-serif" font-size="42" font-weight="600" letter-spacing="3">TREANTLY</text>
</svg>
